<svg width="48" height="49" viewBox="0 0 48 49" fill="none" xmlns="http://www.w3.org/2000/svg">
<path d="M22.38 36.9732H25.98V27.0132H36V23.4132H25.98V12.9732H22.38V23.4132H12V27.0132H22.38V36.9732ZM24 48.9732C20.6 48.9732 17.44 48.3632 14.52 47.1432C11.6 45.9232 9.06 44.2332 6.9 42.0732C4.74 39.9132 3.05 37.3732 1.83 34.4532C0.61 31.5332 0 28.3732 0 24.9732C0 21.6132 0.61 18.4732 1.83 15.5532C3.05 12.6332 4.74 10.0932 6.9 7.93322C9.06 5.77322 11.6 4.07322 14.52 2.83322C17.44 1.59322 20.6 0.973221 24 0.973221C27.36 0.973221 30.5 1.59322 33.42 2.83322C36.34 4.07322 38.88 5.77322 41.04 7.93322C43.2 10.0932 44.9 12.6332 46.14 15.5532C47.38 18.4732 48 21.6132 48 24.9732C48 28.3732 47.38 31.5332 46.14 34.4532C44.9 37.3732 43.2 39.9132 41.04 42.0732C38.88 44.2332 36.34 45.9232 33.42 47.1432C30.5 48.3632 27.36 48.9732 24 48.9732ZM24 45.3732C29.6 45.3732 34.4 43.3732 38.4 39.3732C42.4 35.3732 44.4 30.5732 44.4 24.9732C44.4 19.3732 42.4 14.5732 38.4 10.5732C34.4 6.57322 29.6 4.57322 24 4.57322C18.4 4.57322 13.6 6.57322 9.6 10.5732C5.6 14.5732 3.6 19.3732 3.6 24.9732C3.6 30.5732 5.6 35.3732 9.6 39.3732C13.6 43.3732 18.4 45.3732 24 45.3732Z" fill="#323238"/>
</svg>
